<svg id="Layer_1" data-name="Layer 1" xmlns="http://www.w3.org/2000/svg" viewBox="0 0 1661.31 1600"><path d="M290.08,1272.27H198.37L109,917.22h57.62c20.07,0,37.4,13.15,42.13,32Zm-75.33-21h48.36l-74.7-296.93c-2.38-9.47-11.33-16.08-21.75-16.08H136Z"/><path d="M359.78,1141.25H237.43v-21H359.78a16.05,16.05,0,1,0,0-32.1H224.69v-21H359.78a37.07,37.07,0,0,1,0,74.14Z"/><path d="M550,1328.36H228.62A33.45,33.45,0,0,1,195.2,1295v-42.88H583.41V1295A33.45,33.45,0,0,1,550,1328.36Zm-333.77-55.27V1295a12.4,12.4,0,0,0,12.4,12.39H550a12.4,12.4,0,0,0,12.4-12.39v-21.86Z"/><path d="M215.26,1523.87h-44.4l55.84-216.53h85.9l-45.47,176.34A53.56,53.56,0,0,1,215.26,1523.87Zm-17.27-21h17.27a32.54,32.54,0,0,0,31.52-24.42l38.69-150.07H243Z"/><path d="M606.85,1523.87H561.68a52.56,52.56,0,0,1-50.91-39.45l-45.66-177.08H551ZM492.23,1328.36l38.89,150.82a31.55,31.55,0,0,0,30.56,23.67h18l-45-174.49Z"/><path d="M1462.94,1272.27h-91.71l81.28-323.08c4.74-18.82,22.06-32,42.13-32h57.62Zm-64.75-21h48.36l78.75-313h-30.66c-10.42,0-19.36,6.61-21.74,16.08Z"/><path d="M1423.87,1141.25H1301.52a37.07,37.07,0,1,1,0-74.14h135.1v21h-135.1a16.05,16.05,0,0,0,0,32.1h122.35Z"/><path d="M1432.69,1328.36H1111.31A33.44,33.44,0,0,1,1077.9,1295v-42.88h388.2V1295A33.44,33.44,0,0,1,1432.69,1328.36Zm-333.77-55.27V1295a12.4,12.4,0,0,0,12.39,12.39h321.38a12.4,12.4,0,0,0,12.39-12.39v-21.86Z"/><path d="M1490.44,1523.87h-44.39a53.58,53.58,0,0,1-51.88-40.19l-45.47-176.34h85.91Zm-114.61-195.51,38.7,150.07a32.54,32.54,0,0,0,31.52,24.42h17.27l-45-174.49Z"/><path d="M1099.63,1523.87h-45.17l55.83-216.53h85.91l-45.66,177.08A52.57,52.57,0,0,1,1099.63,1523.87Zm-18-21h18a31.54,31.54,0,0,0,30.55-23.67l38.89-150.82h-42.49Z"/><path d="M582.77,1523.87v-10.51a161.12,161.12,0,0,1,161.11-161.11H917.43a161.1,161.1,0,0,1,161.1,161.11v10.51Zm21.41-21h452.94c-5.39-72.35-66-129.58-139.69-129.58H743.88C670.17,1373.27,609.58,1430.5,604.18,1502.85Z"/><polygon points="878.6 1373.28 782.7 1373.28 782.7 1040.96 803.72 1040.96 803.72 1352.26 857.58 1352.26 857.58 1040.96 878.6 1040.96 878.6 1373.28"/><polygon points="878.6 988.39 857.58 988.39 857.58 708.97 803.72 708.97 803.72 988.39 782.7 988.39 782.7 687.95 878.6 687.95 878.6 988.39"/><path d="M1565.67,707.26H95.64A59.32,59.32,0,0,1,36.38,648v-46.5H1624.93V648A59.33,59.33,0,0,1,1565.67,707.26ZM57.4,622.53V648a38.28,38.28,0,0,0,38.24,38.23h1470A38.28,38.28,0,0,0,1603.91,648V622.53Z"/><rect x="3.58" y="417.48" width="864.93" height="21.02" transform="translate(-140.09 224.57) rotate(-25.02)"/><rect x="1215.28" y="-4.49" width="21.02" height="864.93" transform="translate(319.56 1357.73) rotate(-64.98)"/><path d="M829.47,253.69a88.78,88.78,0,1,1,88.79-88.78A88.88,88.88,0,0,1,829.47,253.69Zm0-156.54a67.76,67.76,0,1,0,67.77,67.76A67.84,67.84,0,0,0,829.47,97.15Z"/><path d="M990,1051.47H671.34a59.17,59.17,0,0,1-59.1-59.1V977.88h436.82v14.49A59.16,59.16,0,0,1,990,1051.47ZM633.82,998.9a38.14,38.14,0,0,0,37.52,31.55H990a38.14,38.14,0,0,0,37.52-31.55Z"/><path d="M696.42,989l-49-.32L632,879.38l83.21.56Zm-38.94-11.82,29.21.2,14.77-86L645.28,891Z"/><rect x="653.61" y="856.39" width="8.41" height="29.35" transform="translate(-178.83 170) rotate(-12.98)"/><rect x="643.1" y="840.29" width="8.41" height="22.73" transform="translate(-421.02 796.81) rotate(-49.82)"/><path d="M965.68,989,946.94,879.94l83.21-.56-15.48,109.3Zm-5-97.59,14.77,86,29.21-.2,12.2-86.15Z"/><rect x="989.61" y="866.86" width="29.35" height="8.41" transform="translate(-70.08 1654.05) rotate(-77.02)"/><rect x="1003.43" y="847.45" width="22.73" height="8.41" transform="translate(-310.01 855.6) rotate(-40.17)"/></svg>