<svg id="Layer_1" data-name="Layer 1" xmlns="http://www.w3.org/2000/svg" viewBox="0 0 1797.38 1600"><path d="M1714.29,1383.13H1590.58v-15.25H1698.7v-48.13c0-63.79-53.06-115.69-118.28-115.69H217c-65.22,0-118.28,51.9-118.28,115.69v48.13H204.57v15.25H83.09v-63.38c0-72.2,60.06-131,133.87-131H1580.42c73.81,0,133.87,58.75,133.87,131Z"/><rect x="339.63" y="1362.43" width="1116.74" height="15.25"/><path d="M318.49,1524.55H225.7c-20.1,0-36.46-16-36.46-35.68V1370.06h15.59v118.81a20.68,20.68,0,0,0,20.87,20.42h92.79a20.67,20.67,0,0,0,20.87-20.42V1370.06H355v118.81C355,1508.54,338.6,1524.55,318.49,1524.55Z"/><path d="M1569.45,1524.55h-92.79c-20.11,0-36.46-16-36.46-35.68V1370.06h15.59v118.81a20.67,20.67,0,0,0,20.87,20.42h92.79a20.67,20.67,0,0,0,20.87-20.42V1370.06h15.59v118.81C1605.91,1508.54,1589.55,1524.55,1569.45,1524.55Z"/><path d="M1476.25,1204.06H265.41v-18.81c0-63.74,53-115.6,118.17-115.6h974.51c3.09,0,6.34.13,9.65.38,2.34.19,4.44.42,6.46.7l-2.18,15.1c-1.72-.24-3.53-.43-5.53-.59-2.88-.22-5.71-.34-8.4-.34H383.58c-56.56,0-102.58,45-102.58,100.35v3.55H1468.45v7.36h7.8Z"/><path d="M1460.73,1204.91a7.85,7.85,0,0,1-4.5-1.41l4.46-6.25-6.18-4.56,220.4-285.64a62.3,62.3,0,0,0,12.52-47.54,63.48,63.48,0,0,0-26-42.35c-29.4-21.25-71.18-15.39-93.12,13.05l-196.77,255-12.44-9.19,196.76-255c27.07-35.09,78.59-42.32,114.83-16.13a78.56,78.56,0,0,1,32.18,52.43,77.17,77.17,0,0,1-15.51,58.91L1467,1201.88A7.86,7.86,0,0,1,1460.73,1204.91Z"/><rect x="888.67" y="612.71" width="17.82" height="459.12"/><path d="M1084.48,624.56h-391L601.43,514.68,889.17,75.45,1192.7,523.67Zm-383.6-15.25h377.36l94.24-87.87L889.38,103.39,620.67,513.58Z"/><polygon points="1594.33 628.99 1263.27 628.99 1176.59 526.84 1188.59 517.1 1270.59 613.73 1587.84 613.73 1631.74 570.53 1631.74 463.92 889.3 94.83 158.87 463.89 158.87 566.13 213.27 609.28 516.59 609.28 605.13 508.52 616.96 518.46 523.75 624.53 207.74 624.53 143.27 573.4 143.27 454.6 889.25 77.69 1647.34 454.56 1647.34 576.82 1594.33 628.99"/></svg>