<svg id="Layer_1" data-name="Layer 1" xmlns="http://www.w3.org/2000/svg" viewBox="0 0 2352.51 1600"><defs><style>.cls-1{stroke:#000;stroke-miterlimit:10;stroke-width:16px;}</style></defs><path class="cls-1" d="M2190.32,1196.76H162.19V790.89c0-86.73,70.56-157.28,157.28-157.28H2033c86.73,0,157.29,70.55,157.29,157.28Zm-1942.6-85.53H2104.79V790.89A71.84,71.84,0,0,0,2033,719.14H319.47a71.84,71.84,0,0,0-71.75,71.75Z"/><path class="cls-1" d="M205,1523.87a42.76,42.76,0,0,1-42.76-42.76V1154a42.77,42.77,0,0,1,85.53,0v327.12A42.77,42.77,0,0,1,205,1523.87Z"/><path class="cls-1" d="M2147.55,1523.87a42.76,42.76,0,0,1-42.76-42.76V1154a42.77,42.77,0,0,1,85.53,0v327.12A42.77,42.77,0,0,1,2147.55,1523.87Z"/><path class="cls-1" d="M1885.18,719.14H467.33v-534a109.11,109.11,0,0,1,109-109H1776.19a109.12,109.12,0,0,1,109,109ZM552.86,633.61H1799.65V185.12a23.49,23.49,0,0,0-23.46-23.46H576.32a23.48,23.48,0,0,0-23.46,23.46Z"/><path class="cls-1" d="M1090.24,704.15H631.32V395.79a94.84,94.84,0,0,1,94.74-94.73H995.51a94.84,94.84,0,0,1,94.73,94.73Zm-401.9-57h344.88V395.79a37.76,37.76,0,0,0-37.71-37.71H726.06a37.76,37.76,0,0,0-37.72,37.71Z"/><path class="cls-1" d="M1721.18,704.15H1262.26V395.79A94.84,94.84,0,0,1,1357,301.06h269.45a94.84,94.84,0,0,1,94.73,94.73Zm-401.9-57h344.88V395.79a37.75,37.75,0,0,0-37.71-37.71H1357a37.76,37.76,0,0,0-37.72,37.71Z"/></svg>