<svg width="15" height="15" viewBox="0 0 15 15" fill="none" xmlns="http://www.w3.org/2000/svg">
<g clip-path="url(#clip0_1067_13496)">
<path d="M4.0505 9.64153C4.0955 9.68508 4.12934 9.73883 4.14914 9.79824C4.16894 9.85764 4.17412 9.92095 4.16425 9.98278L3.6305 13.0934C3.60244 13.2604 3.62348 13.432 3.69104 13.5874C3.75861 13.7427 3.8698 13.8751 4.01112 13.9684C4.1557 14.0618 4.32463 14.1105 4.49675 14.1084C4.66463 14.1095 4.82906 14.0608 4.96925 13.9684L7.74737 12.1878C7.80909 12.1494 7.88032 12.1291 7.953 12.1291C8.02568 12.1291 8.0969 12.1494 8.15862 12.1878L10.9367 13.9684C11.0789 14.0603 11.2447 14.109 11.414 14.1086C11.5833 14.1082 11.7488 14.0586 11.8905 13.966C12.0322 13.8734 12.144 13.7417 12.2124 13.5868C12.2807 13.4319 12.3026 13.2605 12.2755 13.0934L11.7417 9.98278C11.7319 9.92095 11.7371 9.85764 11.7569 9.79824C11.7767 9.73883 11.8105 9.68508 11.8555 9.64153L14.0955 7.45403C14.2187 7.33503 14.3043 7.18245 14.3417 7.01524C14.379 6.84803 14.3664 6.67354 14.3055 6.51341C14.2447 6.3529 14.138 6.21381 13.9988 6.11346C13.8596 6.01311 13.6939 5.95593 13.5224 5.94903L10.5124 5.82216C10.4408 5.81847 10.3717 5.79533 10.3123 5.75524C10.2529 5.71516 10.2056 5.65964 10.1755 5.59466L8.758 2.38778C8.69076 2.22994 8.5786 2.09535 8.43547 2.00075C8.29234 1.90615 8.12456 1.85571 7.953 1.85571C7.78143 1.85571 7.61365 1.90615 7.47052 2.00075C7.3274 2.09535 7.21524 2.22994 7.148 2.38778L5.7305 5.59466C5.70035 5.65964 5.65305 5.71516 5.59369 5.75524C5.53433 5.79533 5.46516 5.81847 5.39362 5.82216L2.38362 5.94903C2.21212 5.95593 2.04644 6.01311 1.90719 6.11346C1.76795 6.21381 1.66129 6.3529 1.6005 6.51341C1.54169 6.67519 1.53191 6.85072 1.57237 7.01804C1.61284 7.18535 1.70176 7.33701 1.828 7.45403L4.0505 9.64153Z" fill="#EDEDED"/>
</g>
<defs>
<clipPath id="clip0_1067_13496">
<rect width="14" height="14" fill="white" transform="translate(0.953125 0.983398)"/>
</clipPath>
</defs>
</svg>
